<svg width="10" height="20" viewBox="0 0 10 20" fill="none" xmlns="http://www.w3.org/2000/svg">
<path fill-rule="evenodd" clip-rule="evenodd" d="M8.75 2.5V15C8.75 17.0706 7.07063 18.75 5 18.75C2.92937 18.75 1.25 17.0706 1.25 15V3.75C1.25 2.36937 2.36937 1.25 3.75 1.25C5.13062 1.25 6.25 2.36937 6.25 3.75V15C6.25 15.69 5.69 16.25 5 16.25C4.31 16.25 3.75 15.69 3.75 15V5H2.5V15C2.5 16.3806 3.61937 17.5 5 17.5C6.38062 17.5 7.5 16.3806 7.5 15V3.75C7.5 1.67937 5.82063 0 3.75 0C1.67937 0 0 1.67937 0 3.75V15.625C0.308125 18.0906 2.45062 20 5 20C7.54938 20 9.69188 18.0906 10 15.625V2.5H8.75Z" fill="#6C4CF4"/>
</svg>
