<svg width="16" height="16" viewBox="0 0 16 16" fill="none" xmlns="http://www.w3.org/2000/svg">
<g clip-path="url(#clip0_488_2254)">
<path d="M9.33301 4.00016V2.66683H6.66634V4.00016H9.33301ZM2.66634 6.00016V12.0002C2.66634 12.3668 2.96634 12.6668 3.33301 12.6668H12.6663C13.033 12.6668 13.333 12.3668 13.333 12.0002V6.00016C13.333 5.6335 13.033 5.3335 12.6663 5.3335H3.33301C2.96634 5.3335 2.66634 5.6335 2.66634 6.00016ZM13.333 4.00016C14.073 4.00016 14.6663 4.5935 14.6663 5.3335V12.6668C14.6663 13.4068 14.073 14.0002 13.333 14.0002H2.66634C1.92634 14.0002 1.33301 13.4068 1.33301 12.6668L1.33967 5.3335C1.33967 4.5935 1.92634 4.00016 2.66634 4.00016H5.33301V2.66683C5.33301 1.92683 5.92634 1.3335 6.66634 1.3335H9.33301C10.073 1.3335 10.6663 1.92683 10.6663 2.66683V4.00016H13.333Z" fill="#6F747A"/>
</g>
<defs>
<clipPath id="clip0_488_2254">
<rect width="16" height="16" fill="white"/>
</clipPath>
</defs>
</svg>
