<svg width="20" height="20" viewBox="0 0 20 20" fill="none" xmlns="http://www.w3.org/2000/svg">
<path d="M3.33366 9.99984C3.33366 8.23173 4.03604 6.53603 5.28628 5.28579C6.53652 4.03555 8.23221 3.33317 10.0003 3.33317C11.7684 3.33317 13.4641 4.03555 14.7144 5.28579C15.9646 6.53603 16.667 8.23173 16.667 9.99984C16.667 11.7679 15.9646 13.4636 14.7144 14.7139C13.4641 15.9641 11.7684 16.6665 10.0003 16.6665C8.23221 16.6665 6.53652 15.9641 5.28628 14.7139C4.03604 13.4636 3.33366 11.7679 3.33366 9.99984ZM10.0003 1.6665C5.39783 1.6665 1.66699 5.39734 1.66699 9.99984C1.66699 14.6023 5.39783 18.3332 10.0003 18.3332C14.6028 18.3332 18.3337 14.6023 18.3337 9.99984C18.3337 5.39734 14.6028 1.6665 10.0003 1.6665ZM14.5478 7.88067L13.3695 6.70234L9.16699 10.9048L6.83949 8.57734L5.66116 9.75567L9.16699 13.2615L14.5478 7.88067Z" fill="#6C63FF"/>
</svg>
