<svg width="40" height="40" viewBox="0 0 40 40" fill="none" xmlns="http://www.w3.org/2000/svg">
<path d="M11.5867 21.1166C12.2867 19.5388 13.0906 18.036 13.9983 16.6082C14.9061 15.1816 15.9022 13.8144 16.9867 12.5066L14.6283 12.0149C14.1794 11.926 13.7444 11.9432 13.3233 12.0666C12.9033 12.191 12.5306 12.4155 12.205 12.7399L7.56333 17.3832C7.23222 17.7144 7.11 18.1182 7.19667 18.5949C7.28333 19.0716 7.55111 19.3994 8 19.5782L11.5867 21.1166ZM32.465 6.37158C29.905 6.42492 27.4911 6.99436 25.2233 8.07992C22.9556 9.16547 20.9183 10.611 19.1117 12.4166C17.9494 13.5788 16.92 14.8416 16.0233 16.2049C15.1267 17.5682 14.325 18.9938 13.6183 20.4816C13.4794 20.7782 13.41 21.0821 13.41 21.3932C13.41 21.7044 13.5278 21.9771 13.7633 22.2116L18.0417 26.4582C18.2772 26.6938 18.545 26.8166 18.845 26.8266C19.145 26.8366 19.4433 26.7727 19.74 26.6349C21.2278 25.9494 22.6533 25.1477 24.0167 24.2299C25.38 23.3121 26.6428 22.2721 27.805 21.1099C29.6106 19.3044 31.0561 17.2671 32.1417 14.9982C33.2272 12.7294 33.7967 10.3155 33.85 7.75658C33.85 7.57658 33.8156 7.40769 33.7467 7.24992C33.6789 7.09214 33.5722 6.94047 33.4267 6.79492C33.2811 6.64936 33.1294 6.54269 32.9717 6.47492C32.8128 6.40603 32.6439 6.37158 32.465 6.37158ZM23.3233 16.8982C22.8344 16.4082 22.59 15.8155 22.59 15.1199C22.59 14.4244 22.8344 13.8321 23.3233 13.3432C23.8122 12.8544 24.405 12.6099 25.1017 12.6099C25.7983 12.6099 26.3906 12.8544 26.8783 13.3432C27.3661 13.8321 27.6106 14.4244 27.6117 15.1199C27.6128 15.8155 27.3683 16.4082 26.8783 16.8982C26.3883 17.3882 25.7961 17.6327 25.1017 17.6316C24.4072 17.6305 23.8144 17.386 23.3233 16.8982ZM19.0733 28.6349L20.6117 32.2216C20.7917 32.6705 21.1194 32.9394 21.595 33.0282C22.0728 33.1182 22.4772 32.9977 22.8083 32.6666L27.4483 28.0266C27.7739 27.701 27.9983 27.321 28.1217 26.8866C28.245 26.4521 28.2617 26.0099 28.1717 25.5599L27.6933 23.2349C26.3789 24.3194 25.0094 25.3155 23.585 26.2232C22.1606 27.1299 20.6567 27.9338 19.0733 28.6349ZM8.57667 26.9099C9.22889 26.2577 10.0194 25.9355 10.9483 25.9432C11.8772 25.951 12.6678 26.2805 13.32 26.9316C13.9722 27.5827 14.2983 28.3738 14.2983 29.3049C14.2983 30.236 13.9722 31.0266 13.32 31.6766C12.3933 32.6032 11.3033 33.1866 10.05 33.4266C8.79667 33.6655 7.53111 33.846 6.25333 33.9682C6.37556 32.6682 6.56278 31.3971 6.815 30.1549C7.06722 28.9127 7.65444 27.831 8.57667 26.9099Z" fill="url(#paint0_linear_843_2192)"/>
<defs>
<linearGradient id="paint0_linear_843_2192" x1="29.4999" y1="10.4995" x2="20.0517" y2="33.9682" gradientUnits="userSpaceOnUse">
<stop stop-color="#C05DEF"/>
<stop offset="1" stop-color="#135AC6"/>
</linearGradient>
</defs>
</svg>
