<svg width="32" height="32" viewBox="0 0 32 32" fill="none" xmlns="http://www.w3.org/2000/svg">
<rect x="0.5" y="0.5" width="31" height="31" rx="3.5" fill="white"/>
<rect x="0.5" y="0.5" width="31" height="31" rx="3.5" stroke="#DFE2E6"/>
<path d="M20.4503 10.5498C20.2525 10.5498 20.0592 10.6085 19.8948 10.7184C19.7303 10.8282 19.6021 10.9844 19.5264 11.1672C19.4508 11.3499 19.431 11.5509 19.4695 11.7449C19.5081 11.9389 19.6034 12.1171 19.7432 12.2569C19.8831 12.3968 20.0613 12.492 20.2552 12.5306C20.4492 12.5692 20.6503 12.5494 20.833 12.4737C21.0157 12.398 21.1719 12.2699 21.2818 12.1054C21.3917 11.941 21.4503 11.7476 21.4503 11.5498C21.4503 11.2846 21.345 11.0303 21.1574 10.8427C20.9699 10.6552 20.7155 10.5498 20.4503 10.5498ZM24.2837 12.5665C24.2675 11.8751 24.138 11.191 23.9003 10.5415C23.6884 9.98578 23.3586 9.48257 22.9337 9.0665C22.521 8.63936 22.0166 8.31165 21.4587 8.10817C20.8109 7.8633 20.126 7.73085 19.4337 7.7165C18.5503 7.6665 18.267 7.6665 16.0003 7.6665C13.7337 7.6665 13.4503 7.6665 12.567 7.7165C11.8746 7.73085 11.1898 7.8633 10.542 8.10817C9.98506 8.31371 9.4811 8.64114 9.06699 9.0665C8.63985 9.47915 8.31214 9.98354 8.10866 10.5415C7.86379 11.1893 7.73133 11.8741 7.71699 12.5665C7.66699 13.4498 7.66699 13.7332 7.66699 15.9998C7.66699 18.2665 7.66699 18.5498 7.71699 19.4332C7.73133 20.1255 7.86379 20.8104 8.10866 21.4582C8.31214 22.0161 8.63985 22.5205 9.06699 22.9332C9.4811 23.3585 9.98506 23.686 10.542 23.8915C11.1898 24.1364 11.8746 24.2688 12.567 24.2832C13.4503 24.3332 13.7337 24.3332 16.0003 24.3332C18.267 24.3332 18.5503 24.3332 19.4337 24.2832C20.126 24.2688 20.8109 24.1364 21.4587 23.8915C22.0166 23.688 22.521 23.3603 22.9337 22.9332C23.3605 22.5187 23.6906 22.015 23.9003 21.4582C24.138 20.8087 24.2675 20.1246 24.2837 19.4332C24.2837 18.5498 24.3337 18.2665 24.3337 15.9998C24.3337 13.7332 24.3337 13.4498 24.2837 12.5665ZM22.7837 19.3332C22.7776 19.8621 22.6818 20.3863 22.5003 20.8832C22.3673 21.2458 22.1536 21.5735 21.8753 21.8415C21.605 22.1169 21.278 22.3302 20.917 22.4665C20.4201 22.648 19.896 22.7438 19.367 22.7498C18.5337 22.7915 18.2253 22.7998 16.0337 22.7998C13.842 22.7998 13.5337 22.7998 12.7003 22.7498C12.1511 22.7601 11.6042 22.6755 11.0837 22.4998C10.7385 22.3566 10.4265 22.1438 10.167 21.8748C9.8904 21.6071 9.67936 21.2792 9.55033 20.9165C9.34687 20.4125 9.23403 19.8765 9.21699 19.3332C9.21699 18.4998 9.16699 18.1915 9.16699 15.9998C9.16699 13.8082 9.16699 13.4998 9.21699 12.6665C9.22073 12.1257 9.31945 11.5898 9.50866 11.0832C9.65536 10.7314 9.88055 10.4179 10.167 10.1665C10.4202 9.87998 10.7331 9.65242 11.0837 9.49984C11.5916 9.31654 12.127 9.22074 12.667 9.2165C13.5003 9.2165 13.8087 9.1665 16.0003 9.1665C18.192 9.1665 18.5003 9.1665 19.3337 9.2165C19.8626 9.22257 20.3867 9.31838 20.8837 9.49984C21.2624 9.64038 21.6022 9.86888 21.8753 10.1665C22.1484 10.4225 22.3618 10.7354 22.5003 11.0832C22.6855 11.5906 22.7814 12.1263 22.7837 12.6665C22.8253 13.4998 22.8337 13.8082 22.8337 15.9998C22.8337 18.1915 22.8253 18.4998 22.7837 19.3332ZM16.0003 11.7248C15.1552 11.7265 14.3295 11.9786 13.6275 12.4494C12.9256 12.9201 12.379 13.5883 12.0567 14.3696C11.7344 15.1509 11.6509 16.0102 11.8168 16.8389C11.9827 17.6677 12.3905 18.4286 12.9887 19.0257C13.5869 19.6227 14.3487 20.029 15.1777 20.1933C16.0067 20.3576 16.8659 20.2724 17.6465 19.9486C18.4272 19.6248 19.0944 19.0769 19.5638 18.374C20.0331 17.6712 20.2837 16.845 20.2837 15.9998C20.2848 15.4374 20.1747 14.8803 19.9597 14.3606C19.7447 13.8409 19.4291 13.3688 19.031 12.9715C18.633 12.5742 18.1603 12.2596 17.6402 12.0456C17.12 11.8317 16.5627 11.7226 16.0003 11.7248ZM16.0003 18.7748C15.4515 18.7748 14.915 18.6121 14.4586 18.3072C14.0023 18.0022 13.6466 17.5688 13.4366 17.0618C13.2265 16.5547 13.1716 15.9968 13.2786 15.4585C13.3857 14.9202 13.65 14.4257 14.0381 14.0376C14.4262 13.6495 14.9207 13.3852 15.459 13.2782C15.9972 13.1711 16.5552 13.226 17.0623 13.4361C17.5693 13.6461 18.0027 14.0018 18.3077 14.4581C18.6126 14.9145 18.7753 15.451 18.7753 15.9998C18.7753 16.3643 18.7035 16.7251 18.5641 17.0618C18.4246 17.3985 18.2202 17.7044 17.9625 17.9621C17.7049 18.2197 17.399 18.4241 17.0623 18.5636C16.7256 18.7031 16.3647 18.7748 16.0003 18.7748Z" fill="#6913D8"/>
</svg>
