<svg width="19" height="19" viewBox="0 0 19 19" fill="none" xmlns="http://www.w3.org/2000/svg">
<path d="M15.6542 4.14375C15.6542 4.90659 15.0358 5.525 14.2729 5.525C13.5101 5.525 12.8917 4.90659 12.8917 4.14375C12.8917 3.38091 13.5101 2.7625 14.2729 2.7625C15.0358 2.7625 15.6542 3.38091 15.6542 4.14375Z" fill="url(#paint0_linear_378_8456)"/>
<path fill-rule="evenodd" clip-rule="evenodd" d="M9.20833 13.8125C11.7511 13.8125 13.8125 11.7511 13.8125 9.20833C13.8125 6.66552 11.7511 4.60417 9.20833 4.60417C6.66552 4.60417 4.60417 6.66552 4.60417 9.20833C4.60417 11.7511 6.66552 13.8125 9.20833 13.8125ZM9.20833 11.9708C10.734 11.9708 11.9708 10.734 11.9708 9.20833C11.9708 7.68265 10.734 6.44583 9.20833 6.44583C7.68265 6.44583 6.44583 7.68265 6.44583 9.20833C6.44583 10.734 7.68265 11.9708 9.20833 11.9708Z" fill="url(#paint1_linear_378_8456)"/>
<path fill-rule="evenodd" clip-rule="evenodd" d="M0 8.84C0 5.74571 0 4.19857 0.602189 3.0167C1.13189 1.97711 1.97711 1.13189 3.0167 0.602189C4.19857 0 5.74571 0 8.84 0H9.57667C12.671 0 14.2181 0 15.4 0.602189C16.4396 1.13189 17.2848 1.97711 17.8145 3.0167C18.4167 4.19857 18.4167 5.74571 18.4167 8.84V9.57667C18.4167 12.671 18.4167 14.2181 17.8145 15.4C17.2848 16.4396 16.4396 17.2848 15.4 17.8145C14.2181 18.4167 12.671 18.4167 9.57667 18.4167H8.84C5.74571 18.4167 4.19857 18.4167 3.0167 17.8145C1.97711 17.2848 1.13189 16.4396 0.602189 15.4C0 14.2181 0 12.671 0 9.57667V8.84ZM8.84 1.84167H9.57667C11.1542 1.84167 12.2266 1.8431 13.0555 1.91082C13.8629 1.97679 14.2758 2.09636 14.5639 2.24313C15.2569 2.59626 15.8204 3.15974 16.1735 3.8528C16.3203 4.14084 16.4399 4.55375 16.5058 5.36116C16.5736 6.19008 16.575 7.26247 16.575 8.84V9.57667C16.575 11.1542 16.5736 12.2266 16.5058 13.0555C16.4399 13.8629 16.3203 14.2758 16.1735 14.5639C15.8204 15.2569 15.2569 15.8204 14.5639 16.1735C14.2758 16.3203 13.8629 16.4399 13.0555 16.5058C12.2266 16.5736 11.1542 16.575 9.57667 16.575H8.84C7.26247 16.575 6.19008 16.5736 5.36116 16.5058C4.55375 16.4399 4.14084 16.3203 3.8528 16.1735C3.15974 15.8204 2.59626 15.2569 2.24313 14.5639C2.09636 14.2758 1.97679 13.8629 1.91082 13.0555C1.8431 12.2266 1.84167 11.1542 1.84167 9.57667V8.84C1.84167 7.26247 1.8431 6.19008 1.91082 5.36116C1.97679 4.55375 2.09636 4.14084 2.24313 3.8528C2.59626 3.15974 3.15974 2.59626 3.8528 2.24313C4.14084 2.09636 4.55375 1.97679 5.36116 1.91082C6.19008 1.8431 7.26247 1.84167 8.84 1.84167Z" fill="url(#paint2_linear_378_8456)"/>
<defs>
<linearGradient id="paint0_linear_378_8456" x1="0" y1="0" x2="20.2855" y2="2.36127" gradientUnits="userSpaceOnUse">
<stop stop-color="#C05DEF"/>
<stop offset="1" stop-color="#135AC6"/>
</linearGradient>
<linearGradient id="paint1_linear_378_8456" x1="0" y1="0" x2="20.2855" y2="2.36127" gradientUnits="userSpaceOnUse">
<stop stop-color="#C05DEF"/>
<stop offset="1" stop-color="#135AC6"/>
</linearGradient>
<linearGradient id="paint2_linear_378_8456" x1="0" y1="0" x2="20.2855" y2="2.36127" gradientUnits="userSpaceOnUse">
<stop stop-color="#C05DEF"/>
<stop offset="1" stop-color="#135AC6"/>
</linearGradient>
</defs>
</svg>
