<svg width="19" height="19" viewBox="0 0 19 19" fill="none" xmlns="http://www.w3.org/2000/svg">
<path d="M4.44278 2.22598C4.44278 3.45536 3.44823 4.45196 2.22139 4.45196C0.994551 4.45196 0 3.45536 0 2.22598C0 0.996606 0.994551 0 2.22139 0C3.44823 0 4.44278 0.996606 4.44278 2.22598Z" fill="url(#paint0_linear_378_8459)"/>
<path d="M0.30378 6.08816H4.10103V18.4167H0.30378V6.08816Z" fill="url(#paint1_linear_378_8459)"/>
<path d="M10.2146 6.08816H6.41736V18.4167H10.2146C10.2146 18.4167 10.2146 14.5355 10.2146 12.1088C10.2146 10.6522 10.6788 9.18931 12.5309 9.18931C14.6241 9.18931 14.6115 11.0954 14.6017 12.5721C14.589 14.5024 14.6194 16.4722 14.6194 18.4167H18.4167V11.91C18.3845 7.75523 17.3741 5.84082 14.0498 5.84082C12.0757 5.84082 10.852 6.80109 10.2146 7.66987V6.08816Z" fill="url(#paint2_linear_378_8459)"/>
<defs>
<linearGradient id="paint0_linear_378_8459" x1="0" y1="0" x2="20.2855" y2="2.36127" gradientUnits="userSpaceOnUse">
<stop stop-color="#C05DEF"/>
<stop offset="1" stop-color="#135AC6"/>
</linearGradient>
<linearGradient id="paint1_linear_378_8459" x1="0" y1="0" x2="20.2855" y2="2.36127" gradientUnits="userSpaceOnUse">
<stop stop-color="#C05DEF"/>
<stop offset="1" stop-color="#135AC6"/>
</linearGradient>
<linearGradient id="paint2_linear_378_8459" x1="0" y1="0" x2="20.2855" y2="2.36127" gradientUnits="userSpaceOnUse">
<stop stop-color="#C05DEF"/>
<stop offset="1" stop-color="#135AC6"/>
</linearGradient>
</defs>
</svg>
