<svg width="32" height="32" viewBox="0 0 32 32" fill="none" xmlns="http://www.w3.org/2000/svg">
<rect x="0.5" y="0.5" width="31" height="31" rx="3.5" fill="white"/>
<rect x="0.5" y="0.5" width="31" height="31" rx="3.5" stroke="#DFE2E6"/>
<path d="M21.8333 8.5C22.2754 8.5 22.6993 8.67559 23.0118 8.98816C23.3244 9.30072 23.5 9.72464 23.5 10.1667V21.8333C23.5 22.2754 23.3244 22.6993 23.0118 23.0118C22.6993 23.3244 22.2754 23.5 21.8333 23.5H10.1667C9.72464 23.5 9.30072 23.3244 8.98816 23.0118C8.67559 22.6993 8.5 22.2754 8.5 21.8333V10.1667C8.5 9.72464 8.67559 9.30072 8.98816 8.98816C9.30072 8.67559 9.72464 8.5 10.1667 8.5H21.8333ZM21.4167 21.4167V17C21.4167 16.2795 21.1304 15.5885 20.621 15.079C20.1115 14.5696 19.4205 14.2833 18.7 14.2833C17.9917 14.2833 17.1667 14.7167 16.7667 15.3667V14.4417H14.4417V21.4167H16.7667V17.3083C16.7667 16.6667 17.2833 16.1417 17.925 16.1417C18.2344 16.1417 18.5312 16.2646 18.75 16.4834C18.9688 16.7022 19.0917 16.9989 19.0917 17.3083V21.4167H21.4167ZM11.7333 13.1333C12.1046 13.1333 12.4607 12.9858 12.7233 12.7233C12.9858 12.4607 13.1333 12.1046 13.1333 11.7333C13.1333 10.9583 12.5083 10.325 11.7333 10.325C11.3598 10.325 11.0016 10.4734 10.7375 10.7375C10.4734 11.0016 10.325 11.3598 10.325 11.7333C10.325 12.5083 10.9583 13.1333 11.7333 13.1333ZM12.8917 21.4167V14.4417H10.5833V21.4167H12.8917Z" fill="#6913D8"/>
</svg>
