<svg width="16" height="16" viewBox="0 0 16 16" fill="none" xmlns="http://www.w3.org/2000/svg">
<g clip-path="url(#clip0_488_2251)">
<path d="M7.99967 1.3335C5.41967 1.3335 3.33301 3.42016 3.33301 6.00016C3.33301 9.50016 7.99967 14.6668 7.99967 14.6668C7.99967 14.6668 12.6663 9.50016 12.6663 6.00016C12.6663 3.42016 10.5797 1.3335 7.99967 1.3335ZM4.66634 6.00016C4.66634 4.16016 6.15967 2.66683 7.99967 2.66683C9.83967 2.66683 11.333 4.16016 11.333 6.00016C11.333 7.92016 9.41301 10.7935 7.99967 12.5868C6.61301 10.8068 4.66634 7.90016 4.66634 6.00016Z" fill="#6F747A"/>
<path d="M7.99967 7.66683C8.92015 7.66683 9.66634 6.92064 9.66634 6.00016C9.66634 5.07969 8.92015 4.3335 7.99967 4.3335C7.0792 4.3335 6.33301 5.07969 6.33301 6.00016C6.33301 6.92064 7.0792 7.66683 7.99967 7.66683Z" fill="#6F747A"/>
</g>
<defs>
<clipPath id="clip0_488_2251">
<rect width="16" height="16" fill="white"/>
</clipPath>
</defs>
</svg>
