<svg width="25" height="20" viewBox="0 0 25 20" fill="none" xmlns="http://www.w3.org/2000/svg">
<path d="M22.5 1.25335e-07C23.1307 -0.000199474 23.7382 0.238008 24.2007 0.666871C24.6632 1.09573 24.9464 1.68356 24.9938 2.3125L25 2.5V17.5C25.0002 18.1307 24.762 18.7382 24.3331 19.2007C23.9043 19.6632 23.3164 19.9464 22.6875 19.9937L22.5 20H2.5C1.86928 20.0002 1.26179 19.762 0.799315 19.3331C0.336838 18.9043 0.0535543 18.3164 0.00625027 17.6875L1.25335e-07 17.5V2.5C-0.000199474 1.86928 0.238008 1.26179 0.666871 0.799315C1.09573 0.336838 1.68356 0.0535543 2.3125 0.00625027L2.5 1.25335e-07H22.5ZM22.5 4.2675L13.825 12.9425C13.4734 13.2936 12.9969 13.4908 12.5 13.4908C12.0031 13.4908 11.5266 13.2936 11.175 12.9425L2.5 4.2675V17.5H22.5V4.2675ZM20.7325 2.5H4.2675L12.5 10.7325L20.7325 2.5Z" fill="url(#paint0_linear_354_3224)"/>
<defs>
<linearGradient id="paint0_linear_354_3224" x1="12.5" y1="0" x2="12.5" y2="20" gradientUnits="userSpaceOnUse">
<stop stop-color="#C05DEF"/>
<stop offset="1" stop-color="#135AC6"/>
</linearGradient>
</defs>
</svg>
