<svg width="23" height="24" viewBox="0 0 23 24" fill="none" xmlns="http://www.w3.org/2000/svg">
<path fill-rule="evenodd" clip-rule="evenodd" d="M20 11H12L8 13V3C8 1.89543 8.89543 1 10 1H20C21.1046 1 22 1.89543 22 3V9C22 10.1046 21.1046 11 20 11Z" stroke="url(#paint0_linear_776_2173)" stroke-width="2" stroke-linecap="round" stroke-linejoin="round"/>
<path d="M5 3H3C1.89543 3 1 3.89543 1 5V21C1 22.1046 1.89543 23 3 23H14C15.1046 23 16 22.1046 16 21V14" stroke="url(#paint1_linear_776_2173)" stroke-width="2" stroke-linecap="round" stroke-linejoin="round"/>
<defs>
<linearGradient id="paint0_linear_776_2173" x1="15" y1="1" x2="15" y2="13" gradientUnits="userSpaceOnUse">
<stop stop-color="#135AC6"/>
<stop offset="1" stop-color="#C05DEF"/>
</linearGradient>
<linearGradient id="paint1_linear_776_2173" x1="8.5" y1="3" x2="8.5" y2="23" gradientUnits="userSpaceOnUse">
<stop stop-color="#135AC6"/>
<stop offset="1" stop-color="#C05DEF"/>
</linearGradient>
</defs>
</svg>
