<svg width="16" height="16" viewBox="0 0 16 16" fill="none" xmlns="http://www.w3.org/2000/svg">
<g clip-path="url(#clip0_488_2257)">
<path d="M5.99967 8.00016C7.28634 8.00016 8.33301 6.9535 8.33301 5.66683C8.33301 4.38016 7.28634 3.3335 5.99967 3.3335C4.71301 3.3335 3.66634 4.38016 3.66634 5.66683C3.66634 6.9535 4.71301 8.00016 5.99967 8.00016ZM5.99967 4.66683C6.55301 4.66683 6.99967 5.1135 6.99967 5.66683C6.99967 6.22016 6.55301 6.66683 5.99967 6.66683C5.44634 6.66683 4.99967 6.22016 4.99967 5.66683C4.99967 5.1135 5.44634 4.66683 5.99967 4.66683ZM5.99967 9.16683C4.43967 9.16683 1.33301 9.94683 1.33301 11.5002V12.0002C1.33301 12.3668 1.63301 12.6668 1.99967 12.6668H9.99967C10.3663 12.6668 10.6663 12.3668 10.6663 12.0002V11.5002C10.6663 9.94683 7.55967 9.16683 5.99967 9.16683ZM2.89301 11.3335C3.45301 10.9468 4.80634 10.5002 5.99967 10.5002C7.19301 10.5002 8.54634 10.9468 9.10634 11.3335H2.89301ZM10.693 9.20683C11.4663 9.76683 11.9997 10.5135 11.9997 11.5002V12.6668H13.9997C14.3663 12.6668 14.6663 12.3668 14.6663 12.0002V11.5002C14.6663 10.1535 12.333 9.38683 10.693 9.20683ZM9.99967 8.00016C11.2863 8.00016 12.333 6.9535 12.333 5.66683C12.333 4.38016 11.2863 3.3335 9.99967 3.3335C9.63967 3.3335 9.30634 3.42016 8.99967 3.56683C9.41967 4.16016 9.66634 4.88683 9.66634 5.66683C9.66634 6.44683 9.41967 7.1735 8.99967 7.76683C9.30634 7.9135 9.63967 8.00016 9.99967 8.00016Z" fill="#6F747A"/>
</g>
<defs>
<clipPath id="clip0_488_2257">
<rect width="16" height="16" fill="white"/>
</clipPath>
</defs>
</svg>
