<svg width="42" height="42" viewBox="0 0 42 42" fill="none" xmlns="http://www.w3.org/2000/svg">
<path d="M30.5335 19.9071C30.5335 14.6571 26.2499 10.3735 20.9999 10.3735C15.7499 10.3735 11.4664 14.6571 11.4664 19.9071C11.4664 20.6635 11.55 21.4198 11.76 22.1744C12.0127 23.3918 12.4737 24.1481 13.1037 25.1981C13.23 25.4508 13.3974 25.7018 13.5664 25.9954C13.7764 26.3318 13.9437 26.6681 14.1537 26.9618C14.9937 28.3481 15.4974 29.1454 15.4974 30.7844V34.7318C15.4974 35.7391 16.211 36.5381 17.1774 36.7054C17.5974 38.8481 18.8574 40.1918 21 40.1918C23.1427 40.1918 24.4437 38.8481 24.8227 36.7054C25.7891 36.5381 26.5027 35.6981 26.5027 34.7318V30.7844C26.5027 29.1471 27.0064 28.3071 27.8464 26.9618C28.0137 26.6681 28.2237 26.3318 28.4337 25.9954C28.601 25.7018 28.77 25.4491 28.8964 25.1981C29.5264 24.1481 29.9891 23.3918 30.24 22.1744C30.45 21.4197 30.5337 20.6634 30.5337 19.9071H30.5335ZM24.8635 31.7935H17.2199V30.8272C17.2199 30.6172 17.22 30.4499 17.1773 30.2809H24.8637C24.8637 30.4482 24.8211 30.6172 24.8211 30.8272L24.8227 31.7935H24.8635ZM24.4862 35.1125H17.5133C17.3033 35.1125 17.177 34.9452 17.177 34.7762V33.4735H24.8206V34.7762C24.8633 34.9435 24.6959 35.1125 24.4859 35.1125H24.4862ZM20.9998 38.5562C20.5372 38.5562 19.3625 38.5562 18.8998 36.7925H23.1427C22.68 38.5562 21.4627 38.5562 21 38.5562H20.9998ZM28.6027 21.8397C28.3927 22.7634 28.0564 23.3934 27.469 24.3597C27.3017 24.6124 27.1754 24.8634 27.0064 25.1571C26.7964 25.4934 26.629 25.8297 26.46 26.0807C25.9564 26.9207 25.4937 27.6771 25.2 28.5581H16.8836C16.5899 27.6754 16.1699 26.9207 15.6236 26.0807C15.4563 25.7871 15.2463 25.4934 15.0773 25.1571C14.9099 24.8634 14.7409 24.5697 14.6146 24.3597C14.0273 23.3524 13.6909 22.7634 13.4809 21.7971C13.3136 21.1671 13.2283 20.5371 13.2283 19.9071C13.2283 15.5807 16.7556 12.0535 21.0818 12.0535C25.4083 12.0535 28.9354 15.5808 28.9354 19.9071C28.8534 20.5371 28.7697 21.1671 28.6024 21.8397H28.6027Z" fill="url(#paint0_linear_843_2159)"/>
<path d="M38.3036 19.0674H34.8172C34.3546 19.0674 33.9772 19.4447 33.9772 19.9074C33.9772 20.3701 34.3546 20.7474 34.8172 20.7474H38.3036C38.7662 20.7474 39.1436 20.37 39.1436 19.9074C39.1436 19.4463 38.7662 19.0674 38.3036 19.0674Z" fill="url(#paint1_linear_843_2159)"/>
<path d="M30.7435 11.0038C30.9535 11.0038 31.1635 10.9201 31.3309 10.7511L33.8082 8.2738C34.1445 7.93747 34.1445 7.4338 33.8082 7.09746C33.4719 6.76113 32.9682 6.76113 32.6319 7.09746L30.1545 9.57479C29.8182 9.91112 29.8182 10.4148 30.1545 10.7511C30.3235 10.9201 30.5335 11.0038 30.7435 11.0038H30.7435Z" fill="url(#paint2_linear_843_2159)"/>
<path d="M21 6.93001C21.4626 6.93001 21.84 6.55266 21.84 6.09001V2.60367C21.84 2.141 21.4626 1.76367 21 1.76367C20.5373 1.76367 20.16 2.14102 20.16 2.60367V6.09001C20.16 6.55268 20.5373 6.93001 21 6.93001Z" fill="url(#paint3_linear_843_2159)"/>
<path d="M10.6671 10.7531C10.8345 10.9204 11.0445 11.0057 11.2544 11.0057C11.4644 11.0057 11.6744 10.9221 11.8418 10.7531C12.1781 10.4167 12.1781 9.91308 11.8418 9.57674L9.36443 7.09941C9.02811 6.76309 8.52443 6.76309 8.1881 7.09941C7.85177 7.43574 7.85177 7.93941 8.1881 8.27575L10.6671 10.7531Z" fill="url(#paint4_linear_843_2159)"/>
<path d="M7.22355 19.0674H3.73722C3.27454 19.0674 2.89722 19.4447 2.89722 19.9074C2.89722 20.3701 3.27456 20.7474 3.73722 20.7474H7.22355C7.68622 20.7474 8.06355 20.37 8.06355 19.9074C8.06355 19.4463 7.68621 19.0674 7.22355 19.0674Z" fill="url(#paint5_linear_843_2159)"/>
<path d="M10.6671 29.0638L8.18981 31.5411C7.85348 31.8774 7.85348 32.3811 8.18981 32.7174C8.35715 32.8848 8.56715 32.9701 8.77714 32.9701C8.98712 32.9701 9.19714 32.8864 9.36446 32.7174L11.8418 30.2401C12.1781 29.9038 12.1781 29.4001 11.8418 29.0638C11.5071 28.7274 10.9624 28.7274 10.6671 29.0638H10.6671Z" fill="url(#paint6_linear_843_2159)"/>
<path d="M31.3328 29.0638C30.9965 28.7274 30.4928 28.7274 30.1565 29.0638C29.8201 29.4001 29.8202 29.9038 30.1565 30.2401L32.6338 32.7174C32.8012 32.8848 33.0112 32.9701 33.2211 32.9701C33.4311 32.9701 33.6411 32.8864 33.8085 32.7174C34.1448 32.3811 34.1448 31.8774 33.8085 31.5411L31.3328 29.0638Z" fill="url(#paint7_linear_843_2159)"/>
<defs>
<linearGradient id="paint0_linear_843_2159" x1="30.5337" y1="25.2827" x2="11.4664" y2="25.2827" gradientUnits="userSpaceOnUse">
<stop stop-color="#135AC6"/>
<stop offset="1" stop-color="#C05DEF"/>
</linearGradient>
<linearGradient id="paint1_linear_843_2159" x1="39.1436" y1="19.9074" x2="33.9772" y2="19.9074" gradientUnits="userSpaceOnUse">
<stop stop-color="#135AC6"/>
<stop offset="1" stop-color="#C05DEF"/>
</linearGradient>
<linearGradient id="paint2_linear_843_2159" x1="34.0604" y1="8.9245" x2="29.9023" y2="8.9245" gradientUnits="userSpaceOnUse">
<stop stop-color="#135AC6"/>
<stop offset="1" stop-color="#C05DEF"/>
</linearGradient>
<linearGradient id="paint3_linear_843_2159" x1="21.84" y1="4.34684" x2="20.16" y2="4.34684" gradientUnits="userSpaceOnUse">
<stop stop-color="#135AC6"/>
<stop offset="1" stop-color="#C05DEF"/>
</linearGradient>
<linearGradient id="paint4_linear_843_2159" x1="12.094" y1="8.92645" x2="7.93585" y2="8.92645" gradientUnits="userSpaceOnUse">
<stop stop-color="#135AC6"/>
<stop offset="1" stop-color="#C05DEF"/>
</linearGradient>
<linearGradient id="paint5_linear_843_2159" x1="8.06355" y1="19.9074" x2="2.89722" y2="19.9074" gradientUnits="userSpaceOnUse">
<stop stop-color="#135AC6"/>
<stop offset="1" stop-color="#C05DEF"/>
</linearGradient>
<linearGradient id="paint6_linear_843_2159" x1="12.094" y1="30.8908" x2="7.93756" y2="30.8908" gradientUnits="userSpaceOnUse">
<stop stop-color="#135AC6"/>
<stop offset="1" stop-color="#C05DEF"/>
</linearGradient>
<linearGradient id="paint7_linear_843_2159" x1="34.0607" y1="30.8908" x2="29.9042" y2="30.8908" gradientUnits="userSpaceOnUse">
<stop stop-color="#135AC6"/>
<stop offset="1" stop-color="#C05DEF"/>
</linearGradient>
</defs>
</svg>
