<svg width="32" height="32" viewBox="0 0 32 32" fill="none" xmlns="http://www.w3.org/2000/svg">
<path d="M15.7812 21.9141C15.7812 22.0859 15.9141 22.2266 16.0742 22.2266H23.3008C23.4609 22.2266 23.5938 22.0859 23.5938 21.9141V20.0391C23.5938 19.8672 23.4609 19.7266 23.3008 19.7266H16.0742C15.9141 19.7266 15.7812 19.8672 15.7812 20.0391V21.9141ZM8.16797 22.1523L15.668 15.8633C15.8164 15.7383 15.8164 15.5078 15.668 15.3828L8.16797 9.09766C8.12269 9.05915 8.06732 9.03445 8.00842 9.02649C7.94953 9.01852 7.88958 9.02762 7.8357 9.05271C7.78182 9.0778 7.73628 9.11782 7.70447 9.16802C7.67266 9.21823 7.65592 9.27651 7.65625 9.33594V11.7852C7.65625 11.8789 7.69531 11.9648 7.76953 12.0234L12.0586 15.625L7.76953 19.2266C7.73462 19.2558 7.70642 19.2922 7.68687 19.3333C7.66732 19.3745 7.65687 19.4193 7.65625 19.4648V21.9141C7.65625 22.1797 7.96484 22.3242 8.16797 22.1523ZM30 0H1.25C0.558594 0 0 0.558594 0 1.25V30C0 30.6914 0.558594 31.25 1.25 31.25H30C30.6914 31.25 31.25 30.6914 31.25 30V1.25C31.25 0.558594 30.6914 0 30 0ZM28.4375 28.4375H2.8125V2.8125H28.4375V28.4375Z" fill="url(#paint0_linear_843_2196)"/>
<defs>
<linearGradient id="paint0_linear_843_2196" x1="31.625" y1="31.625" x2="8.125" y2="-0.375001" gradientUnits="userSpaceOnUse">
<stop stop-color="#135AC6"/>
<stop offset="1" stop-color="#C05DEF"/>
</linearGradient>
</defs>
</svg>
