<svg width="19" height="16" viewBox="0 0 19 16" fill="none" xmlns="http://www.w3.org/2000/svg">
<path d="M5.78069 15.5833C3.65291 15.5833 1.66945 14.9458 0 13.8459C1.41742 13.9403 3.91885 13.7141 5.47474 12.1853C3.13417 12.0747 2.07863 10.2256 1.94095 9.43534C2.13982 9.51437 3.08828 9.60919 3.6237 9.38793C0.93129 8.69253 0.51825 6.25862 0.610037 5.5158C1.11486 5.87931 1.97154 6.00575 2.30809 5.97414C-0.200746 4.125 0.701824 1.34339 1.14546 0.742816C2.94589 3.31225 5.64418 4.75533 8.98232 4.8356C8.91938 4.55125 8.88614 4.25521 8.88614 3.95115C8.88614 1.76899 10.5984 0 12.7106 0C13.8142 0 14.8086 0.482917 15.5066 1.25536C16.2441 1.07735 17.354 0.660644 17.8965 0.300287C17.6231 1.31178 16.7716 2.15557 16.2566 2.46832C16.2524 2.45763 16.2609 2.47896 16.2566 2.46832C16.709 2.39782 17.9331 2.15549 18.4167 1.81753C18.1775 2.38577 17.2748 3.33058 16.534 3.85953C16.6719 10.1211 12.0211 15.5833 5.78069 15.5833Z" fill="url(#paint0_linear_252_5536)"/>
<defs>
<linearGradient id="paint0_linear_252_5536" x1="0" y1="0" x2="20.1785" y2="2.77587" gradientUnits="userSpaceOnUse">
<stop stop-color="#C05DEF"/>
<stop offset="1" stop-color="#135AC6"/>
</linearGradient>
</defs>
</svg>
