<svg width="20" height="20" viewBox="0 0 20 20" fill="none" xmlns="http://www.w3.org/2000/svg">
<g clip-path="url(#clip0_488_2244)">
<path d="M11.1293 1.22493C10.5458 0.512262 9.45599 0.512265 8.87257 1.22493L8.04601 2.23447C7.98936 2.30366 7.89486 2.32899 7.8112 2.29739L6.59063 1.83636C5.729 1.51092 4.78518 2.05583 4.6362 2.96475L4.42518 4.25231C4.41071 4.34056 4.34154 4.40974 4.25328 4.4242L2.96573 4.63523C2.05681 4.7842 1.51189 5.72802 1.83734 6.58965L2.29836 7.81023C2.32996 7.89389 2.30464 7.98839 2.23545 8.04504L1.2259 8.87155C0.513239 9.45505 0.513241 10.5449 1.2259 11.1284L2.23545 11.9549C2.30464 12.0116 2.32996 12.1061 2.29836 12.1897L1.83734 13.4103C1.5119 14.2719 2.0568 15.2157 2.96573 15.3647L4.25328 15.5757C4.34154 15.5902 4.41071 15.6594 4.42518 15.7476L4.6362 17.0351C4.78518 17.9441 5.729 18.489 6.59063 18.1636L7.8112 17.7026C7.89486 17.671 7.98936 17.6962 8.04601 17.7655L8.87257 18.775C9.45599 19.4876 10.5458 19.4876 11.1293 18.775L11.9558 17.7655C12.0125 17.6962 12.107 17.671 12.1907 17.7026L13.4112 18.1636C14.2729 18.489 15.2167 17.9441 15.3657 17.0351L15.5767 15.7476C15.5912 15.6594 15.6603 15.5902 15.7486 15.5757L17.0362 15.3647C17.9451 15.2157 18.49 14.2719 18.1646 13.4103L17.7035 12.1897C17.6719 12.1061 17.6972 12.0116 17.7664 11.9549L18.776 11.1284C19.4887 10.5449 19.4887 9.45505 18.776 8.87155L17.7664 8.04504C17.6972 7.98839 17.6719 7.89389 17.7035 7.81023L18.1646 6.58965C18.49 5.72802 17.9451 4.7842 17.0362 4.63523L15.7486 4.4242C15.6603 4.40974 15.5912 4.34056 15.5767 4.25231L15.3657 2.96475C15.2167 2.05584 14.2729 1.51091 13.4112 1.83636L12.1907 2.29739C12.107 2.32899 12.0125 2.30366 11.9558 2.23447L11.1293 1.22493Z" fill="#3D88E0"/>
<path fill-rule="evenodd" clip-rule="evenodd" d="M15.0256 6.64155C15.2697 6.88563 15.2697 7.28136 15.0256 7.52544L9.19224 13.3587C9.07507 13.476 8.91607 13.5418 8.75032 13.5418C8.58457 13.5418 8.42557 13.476 8.30838 13.3587L4.97505 10.0254C4.73097 9.78133 4.73097 9.38566 4.97505 9.14158C5.21912 8.89749 5.61486 8.89749 5.85893 9.14158L8.75032 12.0329L14.1417 6.64155C14.3858 6.39748 14.7815 6.39748 15.0256 6.64155Z" fill="white"/>
</g>
<defs>
<clipPath id="clip0_488_2244">
<rect width="20" height="20" fill="white"/>
</clipPath>
</defs>
</svg>
